<svg width="1200" height="720" viewBox="0 0 1200 720" fill="none" xmlns="http://www.w3.org/2000/svg">
  <rect width="1200" height="720" rx="36" fill="#0F172A"/>
  <rect x="56" y="56" width="1088" height="608" rx="24" fill="#1E293B"/>
  <rect x="104" y="112" width="260" height="18" rx="9" fill="#A78BFA"/>
  <rect x="104" y="152" width="190" height="12" rx="6" fill="#94A3B8"/>
  <rect x="104" y="200" width="340" height="416" rx="16" fill="#0B1220"/>
  <rect x="128" y="228" width="292" height="12" rx="6" fill="#CBD5E1"/>
  <rect x="128" y="254" width="245" height="10" rx="5" fill="#64748B"/>
  <rect x="128" y="292" width="292" height="12" rx="6" fill="#CBD5E1"/>
  <rect x="128" y="318" width="220" height="10" rx="5" fill="#64748B"/>
  <rect x="128" y="356" width="292" height="12" rx="6" fill="#CBD5E1"/>
  <rect x="128" y="382" width="250" height="10" rx="5" fill="#64748B"/>
  <rect x="468" y="200" width="628" height="268" rx="16" fill="#0B1220"/>
  <path d="M514 392C590 278 672 278 748 392C824 278 906 278 982 392" stroke="#A78BFA" stroke-width="10" stroke-linecap="round"/>
  <circle cx="748" cy="318" r="58" fill="#22D3EE"/>
  <circle cx="748" cy="318" r="28" fill="#0B1220"/>
  <rect x="468" y="490" width="628" height="126" rx="16" fill="#0B1220"/>
  <rect x="498" y="522" width="220" height="16" rx="8" fill="#A78BFA"/>
  <rect x="498" y="550" width="420" height="12" rx="6" fill="#64748B"/>
  <rect x="940" y="522" width="126" height="54" rx="12" fill="#22D3EE"/>
</svg>
