<svg width="1200" height="720" viewBox="0 0 1200 720" fill="none" xmlns="http://www.w3.org/2000/svg">
  <rect width="1200" height="720" rx="36" fill="#020617"/>
  <rect x="56" y="56" width="1088" height="608" rx="24" fill="#0F172A"/>
  <rect x="104" y="108" width="992" height="78" rx="14" fill="#1E293B"/>
  <rect x="136" y="138" width="220" height="14" rx="7" fill="#A78BFA"/>
  <rect x="104" y="220" width="360" height="396" rx="18" fill="#0B1220"/>
  <rect x="132" y="252" width="304" height="12" rx="6" fill="#CBD5E1"/>
  <rect x="132" y="278" width="246" height="10" rx="5" fill="#64748B"/>
  <rect x="132" y="314" width="304" height="12" rx="6" fill="#CBD5E1"/>
  <rect x="132" y="340" width="220" height="10" rx="5" fill="#64748B"/>
  <rect x="490" y="220" width="606" height="240" rx="18" fill="#0B1220"/>
  <rect x="522" y="252" width="180" height="12" rx="6" fill="#22D3EE"/>
  <path d="M524 414L596 348L662 382L726 302L790 360L870 290L956 414" stroke="#A78BFA" stroke-width="8" stroke-linecap="round" stroke-linejoin="round"/>
  <rect x="490" y="476" width="606" height="140" rx="18" fill="#0B1220"/>
  <rect x="522" y="510" width="320" height="14" rx="7" fill="#A78BFA"/>
  <rect x="522" y="540" width="430" height="10" rx="5" fill="#64748B"/>
  <rect x="964" y="506" width="102" height="80" rx="12" fill="#22D3EE"/>
</svg>
