<svg width="1200" height="720" viewBox="0 0 1200 720" fill="none" xmlns="http://www.w3.org/2000/svg">
  <rect width="1200" height="720" rx="36" fill="#9A3412"/>
  <rect x="56" y="56" width="1088" height="608" rx="24" fill="#FFEDD5"/>
  <rect x="104" y="108" width="992" height="78" rx="14" fill="#FED7AA"/>
  <rect x="136" y="138" width="200" height="14" rx="7" fill="#C2410C"/>
  <rect x="104" y="220" width="640" height="396" rx="18" fill="#FFF7ED"/>
  <rect x="132" y="252" width="240" height="120" rx="12" fill="#FDBA74"/>
  <rect x="390" y="252" width="326" height="120" rx="12" fill="#FFEDD5"/>
  <rect x="132" y="394" width="584" height="194" rx="12" fill="#FED7AA"/>
  <rect x="768" y="220" width="328" height="396" rx="18" fill="#FFF7ED"/>
  <rect x="796" y="252" width="272" height="18" rx="9" fill="#EA580C"/>
  <rect x="796" y="286" width="220" height="10" rx="5" fill="#C2410C"/>
  <rect x="796" y="314" width="250" height="10" rx="5" fill="#C2410C"/>
  <rect x="796" y="344" width="272" height="52" rx="12" fill="#FB923C"/>
  <rect x="796" y="426" width="272" height="160" rx="12" fill="#FED7AA"/>
</svg>
