<svg width="1200" height="720" viewBox="0 0 1200 720" fill="none" xmlns="http://www.w3.org/2000/svg">
  <rect width="1200" height="720" rx="36" fill="#7C2D12"/>
  <rect x="56" y="56" width="1088" height="608" rx="24" fill="#FDBA74"/>
  <rect x="104" y="112" width="220" height="18" rx="9" fill="#9A3412"/>
  <rect x="104" y="150" width="150" height="12" rx="6" fill="#C2410C"/>
  <rect x="104" y="196" width="992" height="1" fill="#EA580C"/>
  <rect x="104" y="226" width="310" height="360" rx="18" fill="#FFEDD5"/>
  <rect x="134" y="258" width="250" height="220" rx="12" fill="#FDBA74"/>
  <circle cx="259" cy="368" r="50" fill="#FB923C"/>
  <rect x="146" y="500" width="120" height="12" rx="6" fill="#C2410C"/>
  <rect x="146" y="522" width="180" height="14" rx="7" fill="#9A3412"/>
  <rect x="440" y="226" width="310" height="360" rx="18" fill="#FFEDD5"/>
  <rect x="470" y="258" width="250" height="220" rx="12" fill="#FED7AA"/>
  <rect x="482" y="500" width="120" height="12" rx="6" fill="#C2410C"/>
  <rect x="482" y="522" width="170" height="14" rx="7" fill="#9A3412"/>
  <rect x="776" y="226" width="320" height="170" rx="18" fill="#FFEDD5"/>
  <rect x="806" y="258" width="260" height="12" rx="6" fill="#9A3412"/>
  <rect x="806" y="286" width="230" height="10" rx="5" fill="#C2410C"/>
  <rect x="806" y="310" width="240" height="10" rx="5" fill="#C2410C"/>
  <rect x="776" y="416" width="320" height="170" rx="18" fill="#FFEDD5"/>
  <rect x="806" y="448" width="260" height="28" rx="14" fill="#EA580C"/>
  <rect x="806" y="492" width="170" height="10" rx="5" fill="#C2410C"/>
  <rect x="806" y="514" width="210" height="10" rx="5" fill="#C2410C"/>
</svg>
