<svg width="1200" height="720" viewBox="0 0 1200 720" fill="none" xmlns="http://www.w3.org/2000/svg">
  <rect width="1200" height="720" rx="36" fill="#111827"/>
  <rect x="56" y="56" width="1088" height="608" rx="24" fill="#1F2937"/>
  <rect x="104" y="112" width="260" height="18" rx="9" fill="#34D399"/>
  <rect x="104" y="158" width="180" height="12" rx="6" fill="#6B7280"/>
  <rect x="104" y="198" width="450" height="190" rx="16" fill="#111827"/>
  <rect x="124" y="218" width="95" height="150" rx="10" fill="#10B981"/>
  <rect x="235" y="246" width="95" height="122" rx="10" fill="#059669"/>
  <rect x="346" y="278" width="95" height="90" rx="10" fill="#047857"/>
  <rect x="457" y="236" width="77" height="132" rx="10" fill="#34D399"/>
  <rect x="580" y="198" width="516" height="190" rx="16" fill="#111827"/>
  <circle cx="648" cy="286" r="52" fill="#F59E0B"/>
  <circle cx="648" cy="286" r="28" fill="#111827"/>
  <rect x="732" y="240" width="310" height="16" rx="8" fill="#9CA3AF"/>
  <rect x="732" y="272" width="248" height="14" rx="7" fill="#6B7280"/>
  <rect x="732" y="302" width="282" height="14" rx="7" fill="#6B7280"/>
  <rect x="104" y="432" width="992" height="184" rx="16" fill="#111827"/>
  <rect x="124" y="454" width="420" height="14" rx="7" fill="#34D399"/>
  <rect x="124" y="484" width="360" height="12" rx="6" fill="#6B7280"/>
  <rect x="124" y="510" width="500" height="12" rx="6" fill="#6B7280"/>
  <rect x="124" y="536" width="300" height="12" rx="6" fill="#6B7280"/>
  <rect x="760" y="462" width="300" height="120" rx="12" fill="#0F172A"/>
  <path d="M782 540L850 494L903 528L968 478L1038 540" stroke="#34D399" stroke-width="8" stroke-linecap="round" stroke-linejoin="round"/>
</svg>
