<svg width="1200" height="720" viewBox="0 0 1200 720" fill="none" xmlns="http://www.w3.org/2000/svg">
  <rect width="1200" height="720" rx="36" fill="#030712"/>
  <rect x="56" y="56" width="1088" height="608" rx="24" fill="#111827"/>
  <rect x="104" y="108" width="992" height="70" rx="14" fill="#1F2937"/>
  <rect x="136" y="136" width="240" height="14" rx="7" fill="#34D399"/>
  <rect x="104" y="208" width="470" height="408" rx="18" fill="#0B1220"/>
  <path d="M146 548L236 442L318 498L430 366L534 520" stroke="#34D399" stroke-width="10" stroke-linecap="round" stroke-linejoin="round"/>
  <rect x="604" y="208" width="492" height="196" rx="18" fill="#0B1220"/>
  <rect x="636" y="248" width="250" height="14" rx="7" fill="#9CA3AF"/>
  <rect x="636" y="278" width="190" height="10" rx="5" fill="#6B7280"/>
  <rect x="636" y="302" width="260" height="10" rx="5" fill="#6B7280"/>
  <rect x="604" y="420" width="492" height="196" rx="18" fill="#0B1220"/>
  <rect x="636" y="460" width="300" height="14" rx="7" fill="#34D399"/>
  <rect x="636" y="492" width="410" height="10" rx="5" fill="#6B7280"/>
  <rect x="636" y="516" width="360" height="10" rx="5" fill="#6B7280"/>
</svg>
